HIERARCHY
ROOT Hips
{
	OFFSET 0.00000 0.00000 0.00000
	CHANNELS 6 Xposition Yposition Zposition Zrotation Yrotation Xrotation 
	JOINT LHipJoint
	{
		OFFSET 0 0 0
		CHANNELS 3 Zrotation Yrotation Xrotation
		JOINT LeftHip
		{
			OFFSET 1.26600 -1.82114 0.91038
			CHANNELS 3 Zrotation Yrotation Xrotation
			JOINT LeftKnee
			{
				OFFSET 2.50076 -6.87080 0.00000
				CHANNELS 3 Zrotation Yrotation Xrotation
				JOINT LeftAnkle
				{
					OFFSET 2.57364 -7.07102 0.00000
					CHANNELS 3 Zrotation Yrotation Xrotation
					JOINT LeftToe
					{
						OFFSET 0.13572 -0.37290 1.97004
						CHANNELS 3 Zrotation Yrotation Xrotation
						End Site
						{
							OFFSET 0.00000 -0.00000 1.01383
						}
					}
				}
			}
		}
	}
	JOINT RHipJoint
	{
		OFFSET 0 0 0
		CHANNELS 3 Zrotation Yrotation Xrotation
		JOINT RightHip
		{
			OFFSET -1.20803 -1.82114 0.91038
			CHANNELS 3 Zrotation Yrotation Xrotation
			JOINT RightKnee
			{
				OFFSET -2.54916 -7.00377 0.00000
				CHANNELS 3 Zrotation Yrotation Xrotation
				JOINT RightAnkle
				{
					OFFSET -2.56374 -7.04382 0.00000
					CHANNELS 3 Zrotation Yrotation Xrotation
					JOINT RightToe
					{
						OFFSET -0.23520 -0.64621 2.09921
						CHANNELS 3 Zrotation Yrotation Xrotation
						End Site
						{
							OFFSET -0.00000 -0.00000 1.10065
						}
					}
				}
			}
		}
	}
	JOINT lowerback
	{
		OFFSET 0 0 0
		CHANNELS 3 Zrotation Yrotation Xrotation
		JOINT Chest
		{
			OFFSET 0.05492 2.10797 -0.12074
			CHANNELS 3 Zrotation Yrotation Xrotation
			JOINT Chest2
			{
				OFFSET 0.04577 2.11592 -0.04483
				CHANNELS 3 Zrotation Yrotation Xrotation
				JOINT lowerneck
				{
					OFFSET 0 0 0
					CHANNELS 3 Zrotation Yrotation Xrotation
					JOINT Neck
					{
						OFFSET -0.10759 1.80167 0.15770
						CHANNELS 3 Zrotation Yrotation Xrotation
						JOINT Head
						{
							OFFSET 0.09237 1.77509 -0.40848
							CHANNELS 3 Zrotation Yrotation Xrotation
							End Site
							{
								OFFSET 0.03805 1.84093 -0.15754
							}
						}
					}
				}
				JOINT LeftCollar
				{
					OFFSET 0 0 0
					CHANNELS 3 Zrotation Yrotation Xrotation
					JOINT LeftShoulder
					{
						OFFSET 3.42372 1.09575 -0.28209
CHANNELS 3 Zrotation Xrotation Yrotation
						JOINT LeftElbow
						{
OFFSET 0 -4.956810 0.000000
CHANNELS 3 Zrotation Xrotation Yrotation
							JOINT LeftWrist
							{
OFFSET 0 -3.409150 0.000000
CHANNELS 3 Zrotation Xrotation Yrotation
								JOINT lhand
								{
									OFFSET 0 0 0
CHANNELS 3 Zrotation Xrotation Yrotation
									JOINT LFingers
									{
OFFSET 0 -0.616400 0.000000
CHANNELS 3 Zrotation Xrotation Yrotation
										End Site
										{
OFFSET 0 -0.496960 0.000000
										}
									}
								}
								JOINT LThumb
								{
OFFSET 0 0.000000 0.000000
CHANNELS 3 Zrotation Xrotation Yrotation
									End Site
									{
OFFSET 0 -0.504550 0.504550
									}
								}
							}
						}
					}
				}
				JOINT RightCollar
				{
					OFFSET 0 0 0
					CHANNELS 3 Zrotation Yrotation Xrotation
					JOINT RightShoulder
					{
						OFFSET -3.24731 1.15872 -0.32221
CHANNELS 3 Zrotation Xrotation Yrotation
						JOINT RightElbow
						{
OFFSET 0 -5.352000 0.000000
CHANNELS 3 Zrotation Xrotation Yrotation
							JOINT RightWrist
							{
OFFSET 0 -3.437210 -0.000000
CHANNELS 3 Zrotation Xrotation Yrotation
								JOINT rhand
								{
									OFFSET 0 0 0
CHANNELS 3 Zrotation Xrotation Yrotation
									JOINT RFingers
									{
OFFSET 0 -0.720090 0.000000
CHANNELS 3 Zrotation Xrotation Yrotation
										End Site
										{
OFFSET 0 -0.580560 0.000000
										}
									}
								}
								JOINT RThumb
								{
OFFSET 0 0.000000 0.000000
CHANNELS 3 Zrotation Xrotation Yrotation
									End Site
									{
OFFSET 0 -0.589420 0.589420
									}
								}
							}
						}
					}
				}
			}
		}
	}
}
MOTION
Frames: 7
Frame Time: 0.008333333333333333
-0.379386 16.937064 -21.578836 -152.112558 86.670147 209.015614 0.000000 0.000000 0.000000 -21.701328 -0.969364 -4.123720 2.437015 9.722411 28.082355 0.039468 -19.384625 -13.974440 1.481427 7.689635 21.775475 0.000000 0.000000 0.000000 17.388816 4.979188 -35.249098 -8.479421 -16.460139 54.270734 -0.929284 5.824088 -17.196979 -0.022887 0.806101 -2.216792 -2.770258 -0.089636 6.986352 2.804608 -0.156806 3.305827 4.471255 -0.082175 -0.482217 -9.104132 -4.264194 -10.905040 3.440731 -3.200944 39.470852 2.791327 -1.605124 16.192184 0.000000 0.000000 0.000000 0.949426 7.871874 -20.701863 17.650037 -27.706783 4.385311 20.585121 5.391958 -19.044587 0.000000 0.000000 0.000000 -7.125000 0.000000 0.000000 -7.613566 50.067733 0.955767 0.000000 0.000000 0.000000 -4.017950 0.542881 13.150103 -16.196772 -25.786632 -3.731141 -20.901238 -14.898662 -12.422159 0.000000 0.000000 0.000000 7.125000 0.000000 0.000000 4.399728 16.737752 2.955090
-0.050070 16.922010 -21.594759 -158.837224 86.985688 202.916272 0.000000 0.000000 0.000000 -22.529652 -1.425243 -2.743185 2.277318 9.421173 27.121977 0.218413 -18.542603 -14.916773 1.556696 7.873667 22.331232 0.000000 0.000000 0.000000 17.955896 4.462117 -37.293249 -6.074676 -14.498875 45.277945 -0.809250 6.237507 -16.041023 -0.008964 0.608414 -1.671975 -3.331401 -0.038830 7.106875 2.526961 -0.130392 3.447299 4.499029 -0.077071 -0.402319 -8.960116 -4.322279 -10.822186 3.346026 -3.419209 38.502147 2.648454 -1.706612 15.677317 0.000000 0.000000 0.000000 0.784970 7.297873 -19.967102 17.814389 -27.918850 4.462004 19.705890 5.875576 -18.903782 0.000000 0.000000 0.000000 -7.125000 0.000000 0.000000 -8.424942 49.781846 0.999265 0.000000 0.000000 0.000000 -4.102232 0.041536 14.318695 -15.813892 -25.267571 -3.566125 -20.074737 -13.616490 -11.983235 0.000000 0.000000 0.000000 7.125000 0.000000 0.000000 4.961853 17.275593 3.276903
0.360036 16.906705 -21.572238 -148.507377 86.049380 213.932526 0.000000 0.000000 0.000000 -20.861269 0.251587 -2.095753 2.116389 9.104195 26.121972 -0.057332 -20.612451 -14.047833 1.464913 7.647510 21.649165 0.000000 0.000000 0.000000 19.734074 4.945500 -38.508828 -4.160702 -12.370865 37.057378 -0.766988 4.466925 -15.642434 -0.039144 1.271012 -3.494823 -2.365291 -0.219191 6.878276 2.682781 -0.300769 3.466659 4.122764 -0.154128 -0.246806 -10.040634 -4.058492 -11.072172 4.569852 -3.128849 38.741292 3.434883 -1.579785 15.892952 0.000000 0.000000 0.000000 1.010743 6.365299 -20.113919 17.941238 -28.081794 4.521543 19.868855 5.288490 -18.866882 0.000000 0.000000 0.000000 -7.125000 0.000000 0.000000 -8.255944 49.769442 0.976455 0.000000 0.000000 0.000000 -4.260893 0.191882 16.089581 -15.942131 -25.442100 -3.621098 -20.194623 -14.717306 -12.321367 0.000000 0.000000 0.000000 7.125000 0.000000 0.000000 4.887466 16.908515 3.266672
0.855211 16.909926 -21.544898 -179.689501 85.476271 183.090659 0.000000 0.000000 0.000000 -22.536691 1.704117 0.640844 1.637787 8.066702 22.917052 -0.430836 -21.166357 -11.272798 1.580717 7.931005 22.505168 0.000000 0.000000 0.000000 17.396074 4.764043 -39.074956 -3.960905 -12.108217 36.115968 -1.063913 7.847703 -18.448742 -0.001006 0.169635 -0.466096 -3.547997 -0.090123 6.820360 1.730320 -0.221931 3.413262 3.796511 -0.125345 -0.273616 -9.253091 -4.503497 -10.743137 4.357430 -3.960024 38.544207 3.058305 -1.834935 15.761246 0.000000 0.000000 0.000000 1.894612 5.601960 -21.055603 18.155677 -28.356002 4.622933 20.316261 4.719294 -18.863709 0.000000 0.000000 0.000000 -7.125000 0.000000 0.000000 -7.821559 49.836968 0.937776 0.000000 0.000000 0.000000 -3.328790 0.323969 14.568715 -15.560141 -24.920588 -3.458517 -21.284052 -14.266620 -12.175533 0.000000 0.000000 0.000000 7.125000 0.000000 0.000000 4.125373 16.963698 2.749179
1.451721 16.939556 -21.474859 -183.421466 83.657686 179.739895 0.000000 0.000000 0.000000 -22.126268 2.789668 3.976826 1.177569 6.886888 19.380928 -0.640433 -21.229604 -9.321148 0.966235 6.252762 17.521414 0.000000 0.000000 0.000000 16.585742 5.240548 -38.662633 -4.232197 -12.463119 37.390524 -1.160342 7.901584 -19.265168 -0.142596 2.433590 -6.705577 -3.469787 -0.478608 6.191677 1.714031 -0.718708 3.399566 3.760627 -0.382121 0.105056 -8.842807 -4.862377 -10.932280 3.843248 -4.451434 38.168030 2.662498 -2.055533 15.631796 0.000000 0.000000 0.000000 1.836524 5.306468 -21.582501 18.872263 -29.259556 4.968248 20.413837 4.203367 -18.932305 0.000000 0.000000 0.000000 -7.125000 0.000000 0.000000 -7.746970 49.923606 0.945296 0.000000 0.000000 0.000000 -3.142941 0.909258 13.393880 -15.641339 -25.031904 -3.492847 -20.640910 -13.373883 -11.832464 0.000000 0.000000 0.000000 7.125000 0.000000 0.000000 4.562822 17.385683 3.000702
2.089368 16.999545 -21.373947 -171.596569 82.425522 191.475900 0.000000 0.000000 0.000000 -19.792475 1.492855 6.688601 1.166199 6.855197 19.287073 -0.703244 -19.942844 -7.167207 0.638486 5.110290 14.223861 0.000000 0.000000 0.000000 18.849182 4.678462 -37.100103 -4.187308 -12.405598 37.182203 -0.778462 5.343332 -15.724669 -0.210773 2.951383 -8.143781 -2.111517 -0.569434 6.737396 2.593207 -0.757488 3.056057 3.917457 -0.372458 -0.558000 -9.493243 -4.922508 -11.080989 3.979037 -4.325462 38.678851 2.878574 -2.060081 15.956324 0.000000 0.000000 0.000000 1.137566 5.378505 -21.874654 19.270636 -29.753555 5.164418 20.772397 4.187045 -18.776563 0.000000 0.000000 0.000000 -7.125000 0.000000 0.000000 -7.353176 49.819240 0.877412 0.000000 0.000000 0.000000 -3.994168 1.711778 13.931179 -15.215628 -24.445631 -3.314649 -20.936250 -14.279234 -12.290886 0.000000 0.000000 0.000000 7.125000 0.000000 0.000000 4.371072 16.873490 2.922629
2.828227 17.046106 -21.284891 -167.908097 83.166060 194.986903 0.000000 0.000000 0.000000 -19.250538 0.022274 7.807803 1.655435 8.107635 23.041766 -0.738166 -17.843131 -3.755751 0.357367 3.836453 10.617439 0.000000 0.000000 0.000000 20.465101 3.101837 -35.684884 -4.291846 -12.538966 37.666445 -0.383140 6.052643 -11.167422 -0.300067 3.521570 -9.734568 -1.444645 -0.014272 6.252426 2.667011 0.022069 3.050655 3.559519 0.020126 -0.361390 -10.026430 -5.114782 -10.551138 4.652745 -4.746558 38.559474 3.203369 -2.216236 15.853599 0.000000 0.000000 0.000000 0.951666 6.244646 -22.191061 19.857933 -30.470845 5.459168 21.340058 3.165581 -18.909834 0.000000 0.000000 0.000000 -7.125000 0.000000 0.000000 -6.838617 50.048997 0.854576 0.000000 0.000000 0.000000 -3.709822 1.889628 12.138852 -14.642293 -23.645382 -3.081074 -20.818880 -13.170124 -11.808099 0.000000 0.000000 0.000000 7.125000 0.000000 0.000000 4.437685 17.395730 2.916808
